<svg width="48" height="48" viewBox="0 0 48 48" fill="none" xmlns="http://www.w3.org/2000/svg">
<path opacity="0.4" d="M34.2563 14.9053H33.6897L28.9013 10.117C28.5188 9.73445 27.8955 9.73445 27.4988 10.117C27.1163 10.4995 27.1163 11.1228 27.4988 11.5195L30.8847 14.9053H17.1147L20.5005 11.5195C20.883 11.137 20.883 10.5136 20.5005 10.117C20.118 9.73445 19.4947 9.73445 19.098 10.117L14.3238 14.9053H13.7572C12.4822 14.9053 9.83301 14.9053 9.83301 18.532C9.83301 19.9061 10.1163 20.8128 10.7113 21.4078C11.0513 21.762 11.4622 21.9461 11.9013 22.0453C12.3122 22.1445 12.7513 22.1586 13.1763 22.1586H34.823C35.2622 22.1586 35.673 22.1303 36.0697 22.0453C37.2597 21.762 38.1663 20.912 38.1663 18.532C38.1663 14.9053 35.5172 14.9053 34.2563 14.9053Z" fill="#1DACD6"/>
<path d="M34.8374 22.1583H13.1766C12.7516 22.1583 12.3124 22.1441 11.9016 22.0449L13.6866 32.9249C14.0833 35.3616 15.1458 38.1666 19.8633 38.1666H27.8108C32.5849 38.1666 33.4349 35.7724 33.9449 33.0949L36.0841 22.0449C35.6874 22.1299 35.2624 22.1583 34.8374 22.1583ZM22.0308 31.3099C22.0308 31.8624 21.5916 32.3016 21.0391 32.3016C20.4866 32.3016 20.0474 31.8624 20.0474 31.3099V26.6349C20.0474 26.0824 20.4866 25.6433 21.0391 25.6433C21.5916 25.6433 22.0308 26.0824 22.0308 26.6349V31.3099ZM28.0941 31.3099C28.0941 31.8624 27.6549 32.3016 27.1024 32.3016C26.5499 32.3016 26.1108 31.8624 26.1108 31.3099V26.6349C26.1108 26.0824 26.5499 25.6433 27.1024 25.6433C27.6549 25.6433 28.0941 26.0824 28.0941 26.6349V31.3099Z" fill="#1DACD6"/>
</svg>
