<svg width="48" height="48" viewBox="0 0 48 48" fill="none" xmlns="http://www.w3.org/2000/svg">
<g opacity="0.16">
<path d="M19.4809 9.83301L14.3525 14.9755" stroke="#FAFAFA" stroke-width="2" stroke-miterlimit="10" stroke-linecap="round" stroke-linejoin="round"/>
<path d="M28.519 9.83301L33.6474 14.9755" stroke="#FAFAFA" stroke-width="2" stroke-miterlimit="10" stroke-linecap="round" stroke-linejoin="round"/>
<path d="M9.8335 18.1214C9.8335 15.5006 11.236 15.2881 12.9785 15.2881H35.0218C36.7643 15.2881 38.1668 15.5006 38.1668 18.1214C38.1668 21.1673 36.7643 20.9548 35.0218 20.9548H12.9785C11.236 20.9548 9.8335 21.1673 9.8335 18.1214Z" stroke="#FAFAFA" stroke-width="2"/>
<path d="M20.8267 26.833V31.8622" stroke="#FAFAFA" stroke-width="2" stroke-linecap="round"/>
<path d="M27.3435 26.833V31.8622" stroke="#FAFAFA" stroke-width="2" stroke-linecap="round"/>
<path d="M11.9585 21.167L13.956 33.407C14.4093 36.1553 15.5002 38.167 19.5518 38.167H28.0943C32.5002 38.167 33.1518 36.2403 33.6618 33.577L36.0418 21.167" stroke="#FAFAFA" stroke-width="2" stroke-linecap="round"/>
</g>
</svg>
