<svg width="49" height="48" viewBox="0 0 49 48" fill="none" xmlns="http://www.w3.org/2000/svg">
<g opacity="0.16">
<path d="M12.0142 22.8945V29.2554C12.0142 35.6162 14.5642 38.1662 20.925 38.1662H28.5608C34.9217 38.1662 37.4717 35.6162 37.4717 29.2554V22.8945" stroke="#FAFAFA" stroke-width="2" stroke-linecap="round" stroke-linejoin="round"/>
<path d="M24.7499 24.0007C27.3424 24.0007 29.2549 21.8898 28.9999 19.2973L28.0649 9.83398H21.449L20.4999 19.2973C20.2449 21.8898 22.1574 24.0007 24.7499 24.0007Z" stroke="#FAFAFA" stroke-width="2" stroke-linecap="round" stroke-linejoin="round"/>
<path d="M33.6891 24.0007C36.5508 24.0007 38.6475 21.6773 38.3641 18.8298L37.9675 14.934C37.4575 11.2507 36.0408 9.83398 32.3291 9.83398H28.0083L29 19.7648C29.2408 22.1023 31.3516 24.0007 33.6891 24.0007Z" stroke="#FAFAFA" stroke-width="2" stroke-linecap="round" stroke-linejoin="round"/>
<path d="M15.7397 24.0007C18.0772 24.0007 20.188 22.1023 20.4147 19.7648L20.7264 16.634L21.4064 9.83398H17.0855C13.3739 9.83398 11.9572 11.2507 11.4472 14.934L11.0647 18.8298C10.7814 21.6773 12.878 24.0007 15.7397 24.0007Z" stroke="#FAFAFA" stroke-width="2" stroke-linecap="round" stroke-linejoin="round"/>
<path d="M24.7502 31.084C22.3843 31.084 21.2085 32.2598 21.2085 34.6257V38.1673H28.2918V34.6257C28.2918 32.2598 27.116 31.084 24.7502 31.084Z" stroke="#FAFAFA" stroke-width="2" stroke-linecap="round" stroke-linejoin="round"/>
</g>
</svg>
