<svg width="49" height="48" viewBox="0 0 49 48" fill="none" xmlns="http://www.w3.org/2000/svg">
<path opacity="0.4" d="M38.0242 23.1359V31.6218C38.0242 35.5318 34.8508 38.7051 30.9408 38.7051H18.5592C14.6492 38.7051 11.4758 35.5318 11.4758 31.6218V23.2351C12.5525 24.3968 14.0825 25.0626 15.74 25.0626C17.525 25.0626 19.2392 24.1701 20.3158 22.7393C21.2792 24.1701 22.9225 25.0626 24.75 25.0626C26.5633 25.0626 28.1783 24.2126 29.1558 22.7959C30.2467 24.1984 31.9325 25.0626 33.6892 25.0626C35.4033 25.0626 36.9617 24.3684 38.0242 23.1359Z" fill="#1DACD6"/>
<path d="M28.9859 8.77051H20.4859L19.4376 19.1972C19.3526 20.1605 19.4942 21.0672 19.8484 21.8888C20.6701 23.8155 22.5967 25.0622 24.7501 25.0622C26.9317 25.0622 28.8159 23.8438 29.6659 21.903C29.9209 21.2938 30.0767 20.5855 30.0909 19.863V19.5938L28.9859 8.77051Z" fill="#1DACD6"/>
<path opacity="0.6" d="M39.4267 18.7155L39.0158 14.7913C38.4208 10.513 36.48 8.77051 32.3292 8.77051H26.8892L27.9375 19.3955C27.9517 19.5372 27.9658 19.693 27.9658 19.9622C28.0508 20.6988 28.2775 21.3788 28.6175 21.988C29.6375 23.858 31.6208 25.0622 33.6892 25.0622C35.5733 25.0622 37.2733 24.2263 38.3358 22.753C39.1858 21.6197 39.5683 20.1888 39.4267 18.7155Z" fill="#1DACD6"/>
<path opacity="0.6" d="M17.0856 8.77051C12.9206 8.77051 10.9939 10.513 10.3847 14.8338L10.0022 18.7297C9.86058 20.2455 10.2714 21.7188 11.1639 22.8663C12.2406 24.2688 13.8981 25.0622 15.7397 25.0622C17.8081 25.0622 19.7914 23.858 20.7972 22.0163C21.1656 21.3788 21.4064 20.6422 21.4772 19.8772L22.5822 8.78467H17.0856V8.77051Z" fill="#1DACD6"/>
<path d="M23.8293 30.6017C22.0302 30.7859 20.6702 32.3159 20.6702 34.1292V38.705H28.816V34.625C28.8302 31.6642 27.0877 30.2617 23.8293 30.6017Z" fill="#1DACD6"/>
</svg>
