<svg width="49" height="48" viewBox="0 0 49 48" fill="none" xmlns="http://www.w3.org/2000/svg">
<g opacity="0.16">
<path d="M20.2499 38.1673H28.7499C35.8333 38.1673 38.6666 35.334 38.6666 28.2507V19.7507C38.6666 12.6673 35.8333 9.83398 28.7499 9.83398H20.2499C13.1666 9.83398 10.3333 12.6673 10.3333 19.7507V28.2507C10.3333 35.334 13.1666 38.1673 20.2499 38.1673Z" stroke="#FAFAFA" stroke-width="2" stroke-linecap="round" stroke-linejoin="round"/>
<path d="M18.8333 33.9173H30.1666C32.9999 33.9173 34.4166 32.5007 34.4166 29.6673V18.334C34.4166 15.5007 32.9999 14.084 30.1666 14.084H18.8333C15.9999 14.084 14.5833 15.5007 14.5833 18.334V29.6673C14.5833 32.5007 15.9999 33.9173 18.8333 33.9173Z" stroke="#FAFAFA" stroke-width="2" stroke-linecap="round" stroke-linejoin="round"/>
<path d="M14.5833 20.459H18.0966C20.0516 20.459 21.6382 22.0457 21.6382 24.0007C21.6382 25.9557 20.0516 27.5423 18.0966 27.5423H14.5833" stroke="#FAFAFA" stroke-width="2" stroke-linecap="round" stroke-linejoin="round"/>
<path d="M34.4165 21.1523H30.1665" stroke="#FAFAFA" stroke-width="2" stroke-linecap="round" stroke-linejoin="round"/>
<path d="M34.4165 26.834H30.1665" stroke="#FAFAFA" stroke-width="2" stroke-linecap="round" stroke-linejoin="round"/>
<path d="M17.7002 24H17.8419" stroke="#FAFAFA" stroke-width="2" stroke-miterlimit="10" stroke-linecap="round" stroke-linejoin="round"/>
</g>
</svg>
