<svg width="49" height="48" viewBox="0 0 49 48" fill="none" xmlns="http://www.w3.org/2000/svg">
<path opacity="0.4" d="M30.4358 9.83398H18.5783C13.4216 9.83398 10.3474 12.9081 10.3474 18.0648V29.9223C10.3474 35.079 13.4216 38.1531 18.5783 38.1531H30.4358C35.5924 38.1531 38.6666 35.079 38.6666 29.9223V18.0648C38.6666 12.9081 35.5924 9.83398 30.4358 9.83398Z" fill="#1DACD6"/>
<path d="M30.1668 20.0906H33.0002C33.7793 20.0906 34.4168 19.4531 34.4168 18.674V18.334C34.4168 15.9823 32.5185 14.084 30.1668 14.084H18.8335C16.4818 14.084 14.5835 15.9823 14.5835 18.334V19.0423C14.5835 19.8215 15.221 20.459 16.0002 20.459H17.8985C19.7543 20.459 21.4402 21.7907 21.6243 23.6465C21.8368 25.7715 20.1793 27.5565 18.0968 27.5565H16.0002C15.221 27.5565 14.5835 28.194 14.5835 28.9732V29.6815C14.5835 32.0332 16.4818 33.9315 18.8335 33.9315H30.1668C32.5185 33.9315 34.4168 32.0332 34.4168 29.6815V29.3273C34.4168 28.5482 33.7793 27.9107 33.0002 27.9107H30.1668C29.586 27.9107 29.1043 27.429 29.1043 26.8482C29.1043 26.2673 29.586 25.7857 30.1668 25.7857H33.0002C33.7793 25.7857 34.4168 25.1482 34.4168 24.369V23.6465C34.4168 22.8673 33.7793 22.2298 33.0002 22.2298H30.1668C29.586 22.2298 29.1043 21.7623 29.1043 21.1673C29.1043 20.5723 29.586 20.0906 30.1668 20.0906Z" fill="#1DACD6"/>
<path d="M17.4168 25.4173H16.0002C15.221 25.4173 14.5835 24.7798 14.5835 24.0007C14.5835 23.2215 15.221 22.584 16.0002 22.584H17.4168C18.196 22.584 18.8335 23.2215 18.8335 24.0007C18.8335 24.7798 18.196 25.4173 17.4168 25.4173Z" fill="#1DACD6"/>
</svg>
