<svg width="49" height="48" viewBox="0 0 49 48" fill="none" xmlns="http://www.w3.org/2000/svg">
<g opacity="0.16">
<path d="M20.0002 38.1673H28.5002C35.5835 38.1673 38.4168 35.334 38.4168 28.2507V19.7507C38.4168 12.6673 35.5835 9.83398 28.5002 9.83398H20.0002C12.9168 9.83398 10.0835 12.6673 10.0835 19.7507V28.2507C10.0835 35.334 12.9168 38.1673 20.0002 38.1673Z" stroke="#FAFAFA" stroke-width="2" stroke-linecap="round" stroke-linejoin="round"/>
<path d="M29.2083 33.2077C30.7667 33.2077 32.0417 31.9327 32.0417 30.3743V17.6243C32.0417 16.066 30.7667 14.791 29.2083 14.791C27.65 14.791 26.375 16.066 26.375 17.6243V30.3743C26.375 31.9327 27.6358 33.2077 29.2083 33.2077Z" stroke="#FAFAFA" stroke-width="2" stroke-linecap="round" stroke-linejoin="round"/>
<path d="M19.2918 33.209C20.8502 33.209 22.1252 31.934 22.1252 30.3757V25.4173C22.1252 23.859 20.8502 22.584 19.2918 22.584C17.7335 22.584 16.4585 23.859 16.4585 25.4173V30.3757C16.4585 31.934 17.7193 33.209 19.2918 33.209Z" stroke="#FAFAFA" stroke-width="2" stroke-linecap="round" stroke-linejoin="round"/>
</g>
</svg>
