<svg width="49" height="48" viewBox="0 0 49 48" fill="none" xmlns="http://www.w3.org/2000/svg">
<path opacity="0.4" d="M30.186 9.83398H18.3143C13.1577 9.83398 10.0835 12.9082 10.0835 18.0648V29.9223C10.0835 35.0932 13.1577 38.1673 18.3143 38.1673H30.1718C35.3285 38.1673 38.4027 35.0932 38.4027 29.9365V18.0648C38.4168 12.9082 35.3427 9.83398 30.186 9.83398Z" fill="#1DACD6"/>
<path d="M30.5118 18.0652V29.9369C30.5118 30.8435 29.7751 31.5802 28.8684 31.5802C27.9476 31.5802 27.2109 30.8435 27.2109 29.9369V18.0652C27.2109 17.1585 27.9476 16.4219 28.8684 16.4219C29.7751 16.4219 30.5118 17.1585 30.5118 18.0652Z" fill="#1DACD6"/>
<path d="M21.2891 25.3191V29.9374C21.2891 30.8441 20.5524 31.5808 19.6316 31.5808C18.7249 31.5808 17.9883 30.8441 17.9883 29.9374V25.3191C17.9883 24.4124 18.7249 23.6758 19.6316 23.6758C20.5524 23.6758 21.2891 24.4124 21.2891 25.3191Z" fill="#1DACD6"/>
</svg>
