<svg width="48" height="48" viewBox="0 0 48 48" fill="none" xmlns="http://www.w3.org/2000/svg">
<path opacity="0.4" d="M33.8318 14.6774L26.5076 10.4416C25.1051 9.63406 22.9093 9.63406 21.5068 10.4416L14.1118 14.7057C11.1793 16.6891 11.0093 16.9866 11.0093 20.1457V27.8382C11.0093 30.9974 11.1793 31.3091 14.1684 33.3207L21.4926 37.5566C22.2009 37.9674 23.1076 38.1657 24.0001 38.1657C24.8926 38.1657 25.7993 37.9674 26.4934 37.5566L33.8884 33.2924C36.8209 31.3091 36.9909 31.0116 36.9909 27.8524V20.1457C36.9909 16.9866 36.8209 16.6891 33.8318 14.6774Z" fill="#1DACD6"/>
<path d="M24.0002 28.6048C26.543 28.6048 28.6043 26.5435 28.6043 24.0007C28.6043 21.4578 26.543 19.3965 24.0002 19.3965C21.4574 19.3965 19.396 21.4578 19.396 24.0007C19.396 26.5435 21.4574 28.6048 24.0002 28.6048Z" fill="#1DACD6"/>
</svg>
