<svg width="48" height="48" viewBox="0 0 48 48" fill="none" xmlns="http://www.w3.org/2000/svg">
<g opacity="0.16">
<path d="M11.25 19.9049V28.0791C11.25 31.0824 11.25 31.0824 14.0833 32.9949L21.875 37.4999C23.0508 38.1799 24.9633 38.1799 26.125 37.4999L33.9167 32.9949C36.75 31.0824 36.75 31.0824 36.75 28.0933V19.9049C36.75 16.9158 36.75 16.9158 33.9167 15.0033L26.125 10.4983C24.9633 9.81828 23.0508 9.81828 21.875 10.4983L14.0833 15.0033C11.25 16.9158 11.25 16.9158 11.25 19.9049Z" stroke="#FAFAFA" stroke-width="2" stroke-linecap="round" stroke-linejoin="round"/>
<path d="M24 28.25C26.3472 28.25 28.25 26.3472 28.25 24C28.25 21.6528 26.3472 19.75 24 19.75C21.6528 19.75 19.75 21.6528 19.75 24C19.75 26.3472 21.6528 28.25 24 28.25Z" stroke="#FAFAFA" stroke-width="2" stroke-linecap="round" stroke-linejoin="round"/>
</g>
</svg>
