<svg width="20" height="20" viewBox="0 0 20 20" fill="none" xmlns="http://www.w3.org/2000/svg">
<path d="M18.3334 4.75857V12.7419C18.3334 15.0419 16.4668 16.9086 14.1668 16.9086H5.83343C5.4501 16.9086 5.08343 16.8586 4.7251 16.7586C4.20843 16.6169 4.04177 15.9586 4.4251 15.5752L13.2834 6.71691C13.4668 6.53357 13.7418 6.49191 14.0001 6.54191C14.2668 6.59191 14.5584 6.51691 14.7668 6.31691L16.9084 4.16691C17.6918 3.38357 18.3334 3.64191 18.3334 4.75857Z" fill="#FF8E1B"/>
<path opacity="0.4" d="M12.2001 6.13359L3.47508 14.8586C3.07508 15.2586 2.40841 15.1586 2.14175 14.6586C1.83341 14.0919 1.66675 13.4336 1.66675 12.7419V4.75859C1.66675 3.64193 2.30841 3.38359 3.09175 4.16693L5.24175 6.32526C5.56675 6.64193 6.10008 6.64193 6.42508 6.32526L9.40841 3.33359C9.73341 3.00859 10.2667 3.00859 10.5917 3.33359L12.2084 4.95026C12.5251 5.27526 12.5251 5.80859 12.2001 6.13359Z" fill="#FF8E1B"/>
</svg>
