<svg width="25" height="24" viewBox="0 0 25 24" fill="none" xmlns="http://www.w3.org/2000/svg">
<path d="M22.4998 5.71V15.29C22.4998 18.05 20.2598 20.29 17.4998 20.29H7.49983C7.03983 20.29 6.59983 20.23 6.16983 20.11C5.54983 19.94 5.34983 19.15 5.80983 18.69L16.4398 8.06C16.6598 7.84 16.9898 7.79 17.2998 7.85C17.6198 7.91 17.9698 7.82 18.2198 7.58L20.7898 5C21.7298 4.06 22.4998 4.37 22.4998 5.71Z" fill="#FAFAFA"/>
<path opacity="0.4" d="M15.14 7.36002L4.67 17.83C4.19 18.31 3.39 18.19 3.07 17.59C2.7 16.91 2.5 16.12 2.5 15.29V5.71002C2.5 4.37002 3.27 4.06002 4.21 5.00002L6.79 7.59002C7.18 7.97002 7.82 7.97002 8.21 7.59002L11.79 4.00002C12.18 3.61002 12.82 3.61002 13.21 4.00002L15.15 5.94002C15.53 6.33002 15.53 6.97002 15.14 7.36002Z" fill="#FAFAFA"/>
</svg>
