<svg width="24" height="24" viewBox="0 0 24 24" fill="none" xmlns="http://www.w3.org/2000/svg">
<path opacity="0.4" d="M20.4 16.3308C20.12 17.0808 19.53 17.6508 18.76 17.9108C17.68 18.2708 16.57 18.5408 15.45 18.7308C15.34 18.7508 15.23 18.7708 15.12 18.7808C14.94 18.8108 14.76 18.8308 14.58 18.8508C14.36 18.8808 14.13 18.9008 13.9 18.9208C13.27 18.9708 12.65 19.0008 12.02 19.0008C11.38 19.0008 10.74 18.9708 10.11 18.9108C9.83996 18.8908 9.57996 18.8608 9.31996 18.8208C9.16996 18.8008 9.01996 18.7808 8.87996 18.7608C8.76996 18.7408 8.65996 18.7308 8.54996 18.7108C7.43996 18.5308 6.33996 18.2608 5.26996 17.9008C4.46996 17.6308 3.85996 17.0608 3.58996 16.3308C3.31996 15.6108 3.41996 14.7708 3.84996 14.0508L4.97996 12.1708C5.21996 11.7608 5.43996 10.9708 5.43996 10.4908V8.63078C5.43996 5.00078 8.38996 2.05078 12.02 2.05078C15.64 2.05078 18.59 5.00078 18.59 8.63078V10.4908C18.59 10.9708 18.81 11.7608 19.06 12.1708L20.19 14.0508C20.6 14.7508 20.68 15.5708 20.4 16.3308Z" fill="#1DACD6"/>
<path d="M12 10.7606C11.58 10.7606 11.24 10.4206 11.24 10.0006V6.90063C11.24 6.48063 11.58 6.14062 12 6.14062C12.42 6.14062 12.76 6.48063 12.76 6.90063V10.0006C12.75 10.4206 12.41 10.7606 12 10.7606Z" fill="#1DACD6"/>
<path d="M14.8299 20.01C14.4099 21.17 13.2999 22 11.9999 22C11.2099 22 10.4299 21.68 9.87993 21.11C9.55993 20.81 9.31993 20.41 9.17993 20C9.30993 20.02 9.43993 20.03 9.57993 20.05C9.80993 20.08 10.0499 20.11 10.2899 20.13C10.8599 20.18 11.4399 20.21 12.0199 20.21C12.5899 20.21 13.1599 20.18 13.7199 20.13C13.9299 20.11 14.1399 20.1 14.3399 20.07C14.4999 20.05 14.6599 20.03 14.8299 20.01Z" fill="#1DACD6"/>
</svg>
