<svg width="24" height="24" viewBox="0 0 24 24" fill="none" xmlns="http://www.w3.org/2000/svg">
<path opacity="0.4" d="M10.96 2.06057L5.46005 4.12057C4.41005 4.52057 3.55005 5.76057 3.55005 6.89057V14.9906C3.55005 15.8006 4.08005 16.8706 4.73005 17.3506L10.23 21.4606C11.2 22.1906 12.79 22.1906 13.76 21.4606L19.26 17.3506C19.91 16.8606 20.4401 15.8006 20.4401 14.9906V6.89057C20.4401 5.77057 19.58 4.52057 18.53 4.13057L13.03 2.07057C12.47 1.85057 11.53 1.85057 10.96 2.06057Z" fill="#1DACD6"/>
<path d="M10.66 14.2291C10.47 14.2291 10.28 14.1591 10.13 14.0091L8.51999 12.3991C8.22999 12.1091 8.22999 11.6291 8.51999 11.3391C8.80999 11.0491 9.28999 11.0491 9.57999 11.3391L10.66 12.4191L14.43 8.64914C14.72 8.35914 15.2 8.35914 15.49 8.64914C15.78 8.93914 15.78 9.41914 15.49 9.70914L11.19 14.0091C11.04 14.1591 10.85 14.2291 10.66 14.2291Z" fill="#1DACD6"/>
</svg>
